<?xml version="1.0" encoding="UTF-8"?>
<svg width="693px" height="900px" viewBox="0 0 693 900" version="1.1" xmlns="http://www.w3.org/2000/svg" xmlns:xlink="http://www.w3.org/1999/xlink">
    <!-- Generator: Sketch 62 (91390) - https://sketch.com -->
    <title>Group 3</title>
    <desc>Created with Sketch.</desc>
    <g id="Version-2" stroke="none" stroke-width="1" fill="none" fill-rule="evenodd">
        <g id="Homepage" transform="translate(-747.000000, 0.000000)">
            <g id="Sidebar-Login" transform="translate(747.000000, -1.000000)">
                <g id="Group-3">
                    <g id="Group-2" transform="translate(0.000000, 1.000000)">
                        <g id="Group">
                            <polygon id="Path-3" fill="#FAAE9D" points="2.84217094e-14 0 145.361702 0 72.6808511 122"></polygon>
                            <polygon id="Path-3" fill="#F9ABA6" transform="translate(145.158134, 61.000000) scale(1, -1) translate(-145.158134, -61.000000) " points="72.4772834 0 217.838986 0 145.158134 122"></polygon>
                        </g>
                        <g id="Group" transform="translate(145.000000, 0.000000)">
                            <polygon id="Path-3" fill="#FAAE9D" points="2.84217094e-14 0 145.361702 0 72.6808511 122"></polygon>
                            <polygon id="Path-3" fill="#F9ABA6" transform="translate(145.158134, 61.000000) scale(1, -1) translate(-145.158134, -61.000000) " points="72.4772834 0 217.838986 0 145.158134 122"></polygon>
                        </g>
                        <g id="Group" transform="translate(72.500000, 122.000000)">
                            <polygon id="Path-3" fill="#FAAE9D" points="2.84217094e-14 0 145.361702 0 72.6808511 122"></polygon>
                            <polygon id="Path-3" fill="#F9ABA6" transform="translate(145.158134, 61.000000) scale(1, -1) translate(-145.158134, -61.000000) " points="72.4772834 0 217.838986 0 145.158134 122"></polygon>
                        </g>
                        <g id="Group" transform="translate(217.500000, 122.000000)">
                            <polygon id="Path-3" fill="#FAAE9D" points="2.84217094e-14 0 145.361702 0 72.6808511 122"></polygon>
                            <polygon id="Path-3" fill="#F9ABA6" transform="translate(145.158134, 61.000000) scale(1, -1) translate(-145.158134, -61.000000) " points="72.4772834 0 217.838986 0 145.158134 122"></polygon>
                        </g>
                        <g id="Group" transform="translate(357.000000, 122.000000)">
                            <polygon id="Path-3" fill="#FAAE9D" points="2.84217094e-14 0 145.361702 0 72.6808511 122"></polygon>
                            <polygon id="Path-3" fill="#F9ABA6" transform="translate(145.158134, 61.000000) scale(1, -1) translate(-145.158134, -61.000000) " points="72.4772834 0 217.838986 0 145.158134 122"></polygon>
                        </g>
                        <g id="Group" transform="translate(285.000000, 0.000000)">
                            <polygon id="Path-3" fill="#FAAE9D" points="2.84217094e-14 0 145.361702 0 72.6808511 122"></polygon>
                            <polygon id="Path-3" fill="#F9ABA6" transform="translate(145.158134, 61.000000) scale(1, -1) translate(-145.158134, -61.000000) " points="72.4772834 0 217.838986 0 145.158134 122"></polygon>
                        </g>
                        <g id="Group" transform="translate(145.000000, 0.000000)">
                            <polygon id="Path-3" fill="#FAAE9D" points="2.84217094e-14 0 145.361702 0 72.6808511 122"></polygon>
                            <polygon id="Path-3" fill="#F9ABA6" transform="translate(145.158134, 61.000000) scale(1, -1) translate(-145.158134, -61.000000) " points="72.4772834 0 217.838986 0 145.158134 122"></polygon>
                        </g>
                        <g id="Group" transform="translate(145.000000, 244.000000)">
                            <polygon id="Path-3" fill="#FAAE9D" points="2.84217094e-14 0 145.361702 0 72.6808511 122"></polygon>
                            <polygon id="Path-3" fill="#F9ABA6" transform="translate(145.158134, 61.000000) scale(1, -1) translate(-145.158134, -61.000000) " points="72.4772834 0 217.838986 0 145.158134 122"></polygon>
                        </g>
                        <g id="Group" transform="translate(290.000000, 244.000000)">
                            <polygon id="Path-3" fill="#FAAE9D" points="2.84217094e-14 0 145.361702 0 72.6808511 122"></polygon>
                            <polygon id="Path-3" fill="#F9ABA6" transform="translate(145.158134, 61.000000) scale(1, -1) translate(-145.158134, -61.000000) " points="72.4772834 0 217.838986 0 145.158134 122"></polygon>
                        </g>
                        <g id="Group" transform="translate(217.500000, 366.000000)">
                            <polygon id="Path-3" fill="#FAAE9D" points="2.84217094e-14 0 145.361702 0 72.6808511 122"></polygon>
                            <polygon id="Path-3" fill="#F9ABA6" transform="translate(145.158134, 61.000000) scale(1, -1) translate(-145.158134, -61.000000) " points="72.4772834 0 217.838986 0 145.158134 122"></polygon>
                        </g>
                        <g id="Group" transform="translate(362.500000, 366.000000)">
                            <polygon id="Path-3" fill="#FAAE9D" points="2.84217094e-14 0 145.361702 0 72.6808511 122"></polygon>
                            <polygon id="Path-3" fill="#F9ABA6" transform="translate(145.158134, 61.000000) scale(1, -1) translate(-145.158134, -61.000000) " points="72.4772834 0 217.838986 0 145.158134 122"></polygon>
                        </g>
                        <g id="Group" transform="translate(502.000000, 366.000000)">
                            <polygon id="Path-3" fill="#FAAE9D" points="2.84217094e-14 0 145.361702 0 72.6808511 122"></polygon>
                            <polygon id="Path-3" fill="#F9ABA6" transform="translate(145.158134, 61.000000) scale(1, -1) translate(-145.158134, -61.000000) " points="72.4772834 0 217.838986 0 145.158134 122"></polygon>
                        </g>
                        <g id="Group" transform="translate(430.000000, 244.000000)">
                            <polygon id="Path-3" fill="#FAAE9D" points="2.84217094e-14 0 145.361702 0 72.6808511 122"></polygon>
                            <polygon id="Path-3" fill="#F9ABA6" transform="translate(145.158134, 61.000000) scale(1, -1) translate(-145.158134, -61.000000) " points="72.4772834 0 217.838986 0 145.158134 122"></polygon>
                        </g>
                        <g id="Group" transform="translate(290.000000, 244.000000)">
                            <polygon id="Path-3" fill="#FAAE9D" points="2.84217094e-14 0 145.361702 0 72.6808511 122"></polygon>
                            <polygon id="Path-3" fill="#F9ABA6" transform="translate(145.158134, 61.000000) scale(1, -1) translate(-145.158134, -61.000000) " points="72.4772834 0 217.838986 0 145.158134 122"></polygon>
                        </g>
                    </g>
                    <g id="Group-2" transform="translate(426.000000, 0.000000)">
                        <g id="Group">
                            <polygon id="Path-3" fill="#FAAE9D" points="2.84217094e-14 0 145.361702 0 72.6808511 122"></polygon>
                            <polygon id="Path-3" fill="#F9ABA6" transform="translate(145.158134, 61.000000) scale(1, -1) translate(-145.158134, -61.000000) " points="72.4772834 0 217.838986 0 145.158134 122"></polygon>
                        </g>
                        <g id="Group" transform="translate(145.000000, 0.000000)">
                            <polygon id="Path-3" fill="#FAAE9D" points="2.84217094e-14 0 145.361702 0 72.6808511 122"></polygon>
                            <polygon id="Path-3" fill="#F9ABA6" transform="translate(145.158134, 61.000000) scale(1, -1) translate(-145.158134, -61.000000) " points="72.4772834 0 217.838986 0 145.158134 122"></polygon>
                        </g>
                        <g id="Group" transform="translate(72.500000, 122.000000)">
                            <polygon id="Path-3" fill="#FAAE9D" points="2.84217094e-14 0 145.361702 0 72.6808511 122"></polygon>
                            <polygon id="Path-3" fill="#F9ABA6" transform="translate(145.158134, 61.000000) scale(1, -1) translate(-145.158134, -61.000000) " points="72.4772834 0 217.838986 0 145.158134 122"></polygon>
                        </g>
                        <g id="Group" transform="translate(217.500000, 122.000000)" fill="#FAAE9D">
                            <polygon id="Path-3" points="2.84217094e-14 0 145.361702 0 72.6808511 122"></polygon>
                        </g>
                        <g id="Group" transform="translate(145.000000, 0.000000)">
                            <polygon id="Path-3" fill="#FAAE9D" points="2.84217094e-14 0 145.361702 0 72.6808511 122"></polygon>
                            <polygon id="Path-3" fill="#F9ABA6" transform="translate(145.158134, 61.000000) scale(1, -1) translate(-145.158134, -61.000000) " points="72.4772834 0 217.838986 0 145.158134 122"></polygon>
                        </g>
                        <g id="Group" transform="translate(145.000000, 244.000000)">
                            <polygon id="Path-3" fill="#FAAE9D" points="2.84217094e-14 0 145.361702 0 72.6808511 122"></polygon>
                            <polygon id="Path-3" fill="#F9ABA6" transform="translate(145.158134, 61.000000) scale(1, -1) translate(-145.158134, -61.000000) " points="72.4772834 0 217.838986 0 145.158134 122"></polygon>
                        </g>
                        <g id="Group" transform="translate(217.500000, 366.000000)" fill="#FAAE9D">
                            <polygon id="Path-3" points="2.84217094e-14 0 145.361702 0 72.6808511 122"></polygon>
                        </g>
                    </g>
                    <g id="Group-2" transform="translate(287.000000, 489.000000)">
                        <g id="Group">
                            <polygon id="Path-3" fill="#FAAE9D" points="2.84217094e-14 0 145.361702 0 72.6808511 122"></polygon>
                            <polygon id="Path-3" fill="#F9ABA6" transform="translate(145.158134, 61.000000) scale(1, -1) translate(-145.158134, -61.000000) " points="72.4772834 0 217.838986 0 145.158134 122"></polygon>
                        </g>
                        <g id="Group" transform="translate(145.000000, 0.000000)">
                            <polygon id="Path-3" fill="#FAAE9D" points="2.84217094e-14 0 145.361702 0 72.6808511 122"></polygon>
                            <polygon id="Path-3" fill="#F9ABA6" transform="translate(145.158134, 61.000000) scale(1, -1) translate(-145.158134, -61.000000) " points="72.4772834 0 217.838986 0 145.158134 122"></polygon>
                        </g>
                        <g id="Group" transform="translate(72.500000, 122.000000)">
                            <polygon id="Path-3" fill="#FAAE9D" points="2.84217094e-14 0 145.361702 0 72.6808511 122"></polygon>
                            <polygon id="Path-3" fill="#F9ABA6" transform="translate(145.158134, 61.000000) scale(1, -1) translate(-145.158134, -61.000000) " points="72.4772834 0 217.838986 0 145.158134 122"></polygon>
                        </g>
                        <g id="Group" transform="translate(217.500000, 122.000000)">
                            <polygon id="Path-3" fill="#FAAE9D" points="2.84217094e-14 0 145.361702 0 72.6808511 122"></polygon>
                            <polygon id="Path-3" fill="#F9ABA6" transform="translate(145.158134, 61.000000) scale(1, -1) translate(-145.158134, -61.000000) " points="72.4772834 0 217.838986 0 145.158134 122"></polygon>
                        </g>
                        <g id="Group" transform="translate(357.000000, 122.000000)" fill="#FAAE9D">
                            <polygon id="Path-3" points="2.84217094e-14 0 145.361702 0 72.6808511 122"></polygon>
                        </g>
                        <g id="Group" transform="translate(285.000000, 0.000000)">
                            <polygon id="Path-3" fill="#FAAE9D" points="2.84217094e-14 0 145.361702 0 72.6808511 122"></polygon>
                            <polygon id="Path-3" fill="#F9ABA6" transform="translate(145.158134, 61.000000) scale(1, -1) translate(-145.158134, -61.000000) " points="72.4772834 0 217.838986 0 145.158134 122"></polygon>
                        </g>
                        <g id="Group" transform="translate(145.000000, 0.000000)">
                            <polygon id="Path-3" fill="#FAAE9D" points="2.84217094e-14 0 145.361702 0 72.6808511 122"></polygon>
                            <polygon id="Path-3" fill="#F9ABA6" transform="translate(145.158134, 61.000000) scale(1, -1) translate(-145.158134, -61.000000) " points="72.4772834 0 217.838986 0 145.158134 122"></polygon>
                        </g>
                        <g id="Group" transform="translate(145.000000, 244.000000)">
                            <polygon id="Path-3" fill="#FAAE9D" points="2.84217094e-14 0 145.361702 0 72.6808511 122"></polygon>
                            <polygon id="Path-3" fill="#F9ABA6" transform="translate(145.158134, 61.000000) scale(1, -1) translate(-145.158134, -61.000000) " points="72.4772834 0 217.838986 0 145.158134 122"></polygon>
                        </g>
                        <g id="Group" transform="translate(290.000000, 244.000000)">
                            <polygon id="Path-3" fill="#FAAE9D" points="2.84217094e-14 0 145.361702 0 72.6808511 122"></polygon>
                            <polygon id="Path-3" fill="#F9ABA6" transform="translate(145.158134, 61.000000) scale(1, -1) translate(-145.158134, -61.000000) " points="72.4772834 0 217.838986 0 145.158134 122"></polygon>
                        </g>
                        <g id="Group" transform="translate(217.500000, 366.000000)">
                            <polygon id="Path-3" fill="#FAAE9D" points="2.84217094e-14 0 145.361702 0 72.6808511 122"></polygon>
                            <polygon id="Path-3" fill="#F9ABA6" transform="translate(145.158134, 61.000000) scale(1, -1) translate(-145.158134, -61.000000) " points="72.4772834 0 217.838986 0 145.158134 122"></polygon>
                        </g>
                        <g id="Group" transform="translate(362.500000, 366.000000)" fill="#FAAE9D">
                            <polygon id="Path-3" points="2.84217094e-14 0 145.361702 0 72.6808511 122"></polygon>
                        </g>
                        <g id="Group" transform="translate(290.000000, 244.000000)">
                            <polygon id="Path-3" fill="#FAAE9D" points="2.84217094e-14 0 145.361702 0 72.6808511 122"></polygon>
                            <polygon id="Path-3" fill="#F9ABA6" transform="translate(145.158134, 61.000000) scale(1, -1) translate(-145.158134, -61.000000) " points="72.4772834 0 217.838986 0 145.158134 122"></polygon>
                        </g>
                    </g>
                </g>
            </g>
        </g>
    </g>
</svg>